HIERARCHY
ROOT hip
{
  OFFSET 0 0 0
  CHANNELS 6 Xposition Yposition Zposition Zrotation Yrotation Xrotation
  JOINT abdomen
  {
    OFFSET 0 20.6881 -0.73152
    CHANNELS 3 Zrotation Xrotation Yrotation
    JOINT chest
    {
      OFFSET 0 11.7043 -0.48768
      CHANNELS 3 Zrotation Xrotation Yrotation
      JOINT neck
      {
        OFFSET 0 22.1894 -2.19456
        CHANNELS 3 Zrotation Xrotation Yrotation
        JOINT head
        {
          OFFSET -0.24384 7.07133 1.2192
          CHANNELS 3 Zrotation Xrotation Yrotation
          JOINT leftEye
          {
            OFFSET 4.14528 8.04674 8.04672
            CHANNELS 3 Zrotation Xrotation Yrotation
            End Site
            {
              OFFSET 1 0 0
            }
          }
          JOINT rightEye
          {
            OFFSET -3.6576 8.04674 8.04672
            CHANNELS 3 Zrotation Xrotation Yrotation
            End Site
            {
              OFFSET 1 0 0
            }
          }
        }
      }
      JOINT rCollar
      {
        OFFSET -2.68224 19.2634 -4.8768
        CHANNELS 3 Zrotation Xrotation Yrotation
        JOINT rShldr
        {
          OFFSET -8.77824 -1.95073 1.46304
          CHANNELS 3 Zrotation Xrotation Yrotation
          JOINT rForeArm
          {
            OFFSET -28.1742 -1.7115 0.48768
            CHANNELS 3 Zrotation Xrotation Yrotation
            JOINT rHand
            {
              OFFSET -22.5879 0.773209 7.07136
              CHANNELS 3 Zrotation Xrotation Yrotation
              JOINT rThumb1
              {
                OFFSET -1.2192 -0.487915 3.41376
                CHANNELS 3 Zrotation Xrotation Yrotation
                JOINT rThumb2
                {
                  OFFSET -3.37035 -0.52449 3.41376
                  CHANNELS 3 Zrotation Xrotation Yrotation
                  End Site
                  {
                    OFFSET -1.78271 -1.18214 1.43049
                  }
                }
              }
              JOINT rIndex1
              {
                OFFSET -7.75947 0.938293 5.60832
                CHANNELS 3 Zrotation Xrotation Yrotation
                JOINT rIndex2
                {
                  OFFSET -2.54057 -0.884171 1.56538
                  CHANNELS 3 Zrotation Xrotation Yrotation
                  End Site
                  {
                    OFFSET -1.62519 -0.234802 1.16502
                  }
                }
              }
              JOINT rMid1
              {
                OFFSET -8.24714 1.18213 3.41376
                CHANNELS 3 Zrotation Xrotation Yrotation
                JOINT rMid2
                {
                  OFFSET -3.10165 -0.590103 1.0647
                  CHANNELS 3 Zrotation Xrotation Yrotation
                  End Site
                  {
                    OFFSET -2.48547 -0.328903 0.83742
                  }
                }
              }
              JOINT rRing1
              {
                OFFSET -8.82822 0.546677 1.51678
                CHANNELS 3 Zrotation Xrotation Yrotation
                JOINT rRing2
                {
                  OFFSET -2.60934 -0.819778 -0.0198488
                  CHANNELS 3 Zrotation Xrotation Yrotation
                  End Site
                  {
                    OFFSET -2.33842 -0.294052 0.168128
                  }
                }
              }
              JOINT rPinky1
              {
                OFFSET -8.27202 -0.0477905 -0.4584
                CHANNELS 3 Zrotation Xrotation Yrotation
                JOINT rPinky2
                {
                  OFFSET -1.82734 -0.647385 -0.700984
                  CHANNELS 3 Zrotation Xrotation Yrotation
                  End Site
                  {
                    OFFSET -1.69225 -0.51767 -0.607171
                  }
                }
              }
            }
          }
        }
      }
      JOINT lCollar
      {
        OFFSET 2.68224 19.2634 -4.8768
        CHANNELS 3 Zrotation Xrotation Yrotation
        JOINT lShldr
        {
          OFFSET 8.77824 -1.95073 1.46304
          CHANNELS 3 Zrotation Xrotation Yrotation
          JOINT lForeArm
          {
            OFFSET 28.1742 -1.7115 0.48768
            CHANNELS 3 Zrotation Xrotation Yrotation
            JOINT lHand
            {
              OFFSET 22.5879 0.773209 7.07136
              CHANNELS 3 Zrotation Xrotation Yrotation
              JOINT lThumb1
              {
                OFFSET 1.2192 -0.487915 3.41376
                CHANNELS 3 Zrotation Xrotation Yrotation
                JOINT lThumb2
                {
                  OFFSET 3.37035 -0.52449 3.41376
                  CHANNELS 3 Zrotation Xrotation Yrotation
                  End Site
                  {
                    OFFSET 1.78271 -1.18214 1.43049
                  }
                }
              }
              JOINT lIndex1
              {
                OFFSET 7.75947 0.938293 5.60832
                CHANNELS 3 Zrotation Xrotation Yrotation
                JOINT lIndex2
                {
                  OFFSET 2.54057 -0.884171 1.56538
                  CHANNELS 3 Zrotation Xrotation Yrotation
                  End Site
                  {
                    OFFSET 1.62519 -0.234802 1.16502
                  }
                }
              }
              JOINT lMid1
              {
                OFFSET 8.24714 1.18213 3.41376
                CHANNELS 3 Zrotation Xrotation Yrotation
                JOINT lMid2
                {
                  OFFSET 3.10165 -0.590103 1.0647
                  CHANNELS 3 Zrotation Xrotation Yrotation
                  End Site
                  {
                    OFFSET 2.48547 -0.328903 0.83742
                  }
                }
              }
              JOINT lRing1
              {
                OFFSET 8.82822 0.546677 1.51678
                CHANNELS 3 Zrotation Xrotation Yrotation
                JOINT lRing2
                {
                  OFFSET 2.60934 -0.819778 -0.0198488
                  CHANNELS 3 Zrotation Xrotation Yrotation
                  End Site
                  {
                    OFFSET 2.33842 -0.294052 0.168128
                  }
                }
              }
              JOINT lPinky1
              {
                OFFSET 8.27202 -0.0477905 -0.4584
                CHANNELS 3 Zrotation Xrotation Yrotation
                JOINT lPinky2
                {
                  OFFSET 1.82734 -0.647385 -0.700984
                  CHANNELS 3 Zrotation Xrotation Yrotation
                  End Site
                  {
                    OFFSET 1.69225 -0.51767 -0.607171
                  }
                }
              }
            }
          }
        }
      }
    }
  }
  JOINT rButtock
  {
    OFFSET -8.77824 4.35084 1.2192
    CHANNELS 3 Zrotation Xrotation Yrotation
    JOINT rThigh
    {
      OFFSET 0 -1.70687 -2.19456
      CHANNELS 3 Zrotation Xrotation Yrotation
      JOINT rShin
      {
        OFFSET 0 -36.8199 0.73152
        CHANNELS 3 Zrotation Xrotation Yrotation
        JOINT rFoot
        {
          OFFSET 0.73152 -45.1104 -5.12064
          CHANNELS 3 Zrotation Xrotation Yrotation
          End Site
          {
            OFFSET -1.1221 -3.69964 12.103
          }
        }
      }
    }
  }
  JOINT lButtock
  {
    OFFSET 8.77824 4.35084 1.2192
    CHANNELS 3 Zrotation Xrotation Yrotation
    JOINT lThigh
    {
      OFFSET 0 -1.70687 -2.19456
      CHANNELS 3 Zrotation Xrotation Yrotation
      JOINT lShin
      {
        OFFSET 0 -36.8199 0.73152
        CHANNELS 3 Zrotation Xrotation Yrotation
        JOINT lFoot
        {
          OFFSET -0.73152 -45.1104 -5.12064
          CHANNELS 3 Zrotation Xrotation Yrotation
          End Site
          {
            OFFSET 1.1221 -3.69964 12.103
          }
        }
      }
    }
  }
}
MOTION
Frames:	5
Frame Time:	0.03333
0.7343999999999999 69.4851 44.4754 -118.983964 60.214484 -110.73403 -2.440812 25.512283 -158.143647 -5.775942 10.272675 153.725165 2.021828 39.075675 157.690398 -28.858634 43.532763 158.796908 0.001569 -0.0 -0.003296 -0.003732 0.0 -0.002584 -148.397914 27.071333 153.280841 -76.277975 33.870181 64.154069 7.551641 -71.623985 -108.631321 169.246951 -22.560655 142.846255 90.982718 -50.974259 39.052828 -22.264354 -20.431659 -21.108018 -126.94401 19.686243 106.820492 12.422914 -9.506851 -9.025442 -162.424657 -12.167837 143.996088 -8.152907 27.307326 6.899033 -145.07434 5.62193 179.101304 -4.3922 -57.425486 -24.816647 12.190074 41.177688 10.236703 -142.615776 -4.148577 -138.90626 3.717687 17.733129 -4.582987 68.538091 37.610449 -122.029477 142.399723 -52.390617 60.078726 2.841728 -22.270596 4.276424 171.046298 -8.729223 -89.952002 -17.026903 -61.206783 -17.033584 8.110965 11.908024 -5.130462 -3.5567 9.113065 -1.265591 41.778993 54.471141 -35.219699 169.742209 -25.083139 -144.200415 -0.003297 1.901175 -0.598544 -11.389673 -29.171767 3.496974 143.657773 7.429185 140.467869 -4.62858 5.838552 0.296236 179.999916 75.749242 -5.6e-05 142.971736 -11.516616 102.370651 123.093568 -15.730443 30.560891 173.918159 58.061328 104.928193 -0.00097 -0.00018 -0.002397 48.360308 -44.758943 -10.592471 -59.434395 32.534871 -15.875412 21.570631 12.343371 87.290057
1.2293 68.223 44.636199999999995 -122.235525 61.125511 -113.944613 -2.210848 24.176463 -158.28396 -5.966064 10.10712 154.062792 -11.957638 38.449222 -126.806812 33.639877 42.215951 61.023149 0.001744 -0.0 -0.003374 0.000505 0.0 4.4e-05 3.573141 -30.713278 -5.965223 59.488254 36.248671 -34.070948 -90.236639 -5.210103 35.127738 33.203569 -59.494076 20.975311 -2.12085 2.080246 0.362346 -58.375288 27.926688 53.789133 175.630237 -62.231534 114.082395 -26.36564 47.896175 18.623564 -159.545795 -3.229368 142.691663 5.110606 -5.547352 -0.282976 -0.066632 -3.787934 -1.193332 -149.334696 -75.119902 -172.677366 -48.736342 -49.152419 -47.475877 -158.290218 52.225776 -148.970779 152.576875 12.177403 -158.093751 49.231255 25.837775 -5.393955 3.634752 -13.397898 127.052608 177.020529 -8.930748 -143.347705 -177.256286 -20.012664 -88.782614 -150.897391 -49.290423 -105.769576 176.233133 -55.47107 -118.701873 30.43437 49.957391 -21.440328 85.720426 60.990571 -77.302661 4.656637 20.925709 -4.502367 -0.00471 1.107146 -0.348354 -5.865379 34.624802 -5.813754 23.984739 -36.846088 23.074594 21.215474 -39.188064 22.80831 0.000288 0.000727 0.001359 -79.968576 -58.655607 -173.926409 -108.647347 -7.934532 136.759814 -64.291852 26.730717 -13.450029 -179.991953 75.749523 -0.005655 -147.173098 14.640028 -116.039626 -62.282162 -13.87163 72.096786 -40.581081 -44.133465 21.32541
1.8507 67.0976 44.8428 -124.57812 61.614512 -116.527095 -2.854333 27.571949 0.342998 10.467354 -11.569889 -3.176144 7.504919 32.326185 106.327713 -41.054472 13.349781 -159.639529 0.003076 0.0 0.001824 0.00159 -0.0 -0.002726 4.186284 -53.916126 -10.703118 125.859259 57.594243 -100.486983 -12.826164 -65.251052 67.393472 -6.087513 17.426321 0.129004 -167.870123 -5.54563 89.856202 5.398114 -54.791442 12.607265 -113.889703 30.847733 96.363101 -13.853809 30.438992 3.020343 109.59691 -81.470688 79.54873 -173.155275 -33.358701 143.717455 0.005559 1.298941 0.408825 11.241291 -20.141903 -2.443889 -124.850883 -29.039414 -122.620017 10.776041 22.435703 3.747629 145.014013 35.429709 -149.577594 118.292026 57.404908 -75.73252 126.890785 52.249038 130.003184 1.000544 -29.745096 4.496003 -0.998128 -0.98937 0.145344 -21.06268 -35.114863 15.596719 90.889032 40.911622 -76.386528 167.285738 -15.349511 -114.895009 66.680013 60.514852 -58.979536 0.396751 10.686685 -1.916862 -0.000513 -0.019693 0.006879 156.149748 -14.552926 -173.575595 159.388121 64.19275 151.038094 3.816606 -12.182071 5.963305 179.995947 75.748325 0.001853 151.547832 -2.766951 -114.432263 -106.436866 -22.396876 164.046335 -51.4575 50.72005 -34.018909 179.989153 75.747902 0.009434 -150.025652 14.983625 63.04033 64.965722 17.506324 -130.680334 143.08699 26.388 -48.442103
2.4678 65.9902 44.9774 -127.443679 62.014197 -119.795815 -2.193661 26.666398 -2.63702 11.107419 -10.958827 -0.561852 -14.771272 27.671098 -55.439404 42.076248 -3.77399 1.642498 -0.001084 -0.0 0.004273 0.004113 -0.0 -0.004164 -155.531566 -3.694325 161.876414 -63.218298 47.504069 35.120457 -92.374504 76.903108 179.847289 -4.684189 13.324921 -0.113606 9.348515 -9.339792 -0.683334 31.883431 -69.84933 -25.3284 -178.293078 -57.430961 117.655836 -167.342144 -33.21439 116.759776 -2.460017 6.871404 1.463013 -165.795931 -12.668648 144.006147 -144.973943 -5.961394 -177.247249 -156.312905 58.221414 173.500825 -1.490915 -3.753449 -1.385086 1.557253 -2.728665 -0.844416 151.954563 14.837852 -157.350467 -133.907987 -21.440188 -165.733281 -3.5585 -6.108635 -93.877423 9.335178 -3.96279 3.148902 106.461453 35.544227 -62.328455 -27.130156 -34.515659 -25.289586 -143.607246 -73.800408 -88.992896 170.752158 -38.305929 -113.594713 -9.69357 -30.405495 3.230847 -50.316359 -72.860976 -23.992565 144.795712 12.209181 -176.984895 152.735653 -28.844282 174.677867 145.219376 12.209462 141.863543 27.440813 -41.440908 28.678075 -179.998656 75.749274 -0.002349 153.179095 2.407707 -91.940997 -94.543897 -6.25311 120.08458 113.171483 -41.253346 9.322415 0.001834 0.001461 0.001986 48.599561 -49.827979 -159.703902 34.526364 -73.395639 -47.98201 -73.526735 61.459758 -31.427201
3.0543 64.8696 45.0648 -130.869878 62.372589 -123.77492 -0.401696 25.621051 -33.775271 14.091768 -4.030857 29.147858 7.112914 34.987332 118.912245 -39.961864 22.919289 -170.032448 0.000158 0.0 0.003296 -0.001074 0.0 -0.001199 -159.216321 -47.223113 170.24222 154.443981 10.896437 -170.577466 2.182009 -52.014357 85.541419 -8.160609 23.730589 0.753867 2.576966 -2.560675 -0.339812 -45.602557 28.914728 40.004723 -105.373978 35.731633 89.116613 9.608599 -5.899311 -6.940913 -163.569273 -15.841741 144.40917 7.346261 -12.472033 -0.83952 0.00394 1.04265 0.328476 -156.203248 -13.859923 173.496072 1.732636 4.70119 1.586942 -4.060178 -15.429107 -5.704146 152.795278 11.198436 -158.356962 -134.178056 -18.177354 -165.494435 -177.154332 11.960352 -51.16053 170.216713 7.948291 -140.799875 3.646765 3.559768 -0.670504 20.909423 18.294624 -20.19825 -1.493731 -2.461728 0.8207 173.797641 -30.235055 -107.775172 170.085189 -36.16595 -145.354066 39.766507 57.201069 -33.958112 145.123472 1.091458 179.469462 146.218951 -48.371008 168.487511 -18.310583 63.904806 -13.001619 170.527396 73.021846 145.805469 179.997519 75.749398 0.001136 154.097185 7.0429 -95.910273 -88.665271 -12.669746 110.745212 -66.982685 -2.120747 8.379641 -179.980524 75.749097 -0.013629 -151.044946 12.995225 140.290387 59.614921 -65.497045 -25.805722 -33.636387 21.299339 -73.668541
